<svg xmlns="http://www.w3.org/2000/svg" viewBox="0 0 469.33 469.33"><defs><style>.cls-1{fill:#b4b9bd;}.cls-2{fill:#fff;}</style></defs><g id="Layer_2" data-name="Layer 2"><g id="Capa_1" data-name="Capa 1"><path class="cls-1" d="M426.67,0h-384A42.72,42.72,0,0,0,0,42.67v384a42.71,42.71,0,0,0,42.67,42.66h384a42.7,42.7,0,0,0,42.66-42.66v-384A42.71,42.71,0,0,0,426.67,0ZM149.33,448H42.67a21.36,21.36,0,0,1-21.34-21.33v-320h128V448ZM448,426.67A21.36,21.36,0,0,1,426.67,448h-256V106.67H448Zm0-341.34H21.33V42.67A21.37,21.37,0,0,1,42.67,21.33h384A21.36,21.36,0,0,1,448,42.67V85.33Z"/><path class="cls-1" d="M53.33,192h64a10.67,10.67,0,1,0,0-21.33h-64a10.67,10.67,0,0,0,0,21.33Z"/><path class="cls-1" d="M53.33,256h64a10.67,10.67,0,1,0,0-21.33h-64a10.67,10.67,0,0,0,0,21.33Z"/><path class="cls-1" d="M53.33,320h64a10.67,10.67,0,1,0,0-21.33h-64a10.67,10.67,0,0,0,0,21.33Z"/><path class="cls-1" d="M53.33,384H96a10.67,10.67,0,1,0,0-21.33H53.33a10.67,10.67,0,0,0,0,21.33Z"/><path class="cls-2" d="M247.37,277.33a15.17,15.17,0,0,1,4.45-10.76l93.49-93.48a15.22,15.22,0,0,1,21.53,21.53l-82.72,82.71,82.72,82.72a15.22,15.22,0,0,1-21.53,21.53L251.82,288.1A15.2,15.2,0,0,1,247.37,277.33Z"/></g></g></svg>